<?xml version="1.0" encoding="UTF-8" standalone="no"?>
<!DOCTYPE svg PUBLIC "-//W3C//DTD SVG 1.1//EN" "http://www.w3.org/Graphics/SVG/1.1/DTD/svg11.dtd">
<svg width="100%" height="100%" viewBox="0 0 32 32" version="1.1" xmlns="http://www.w3.org/2000/svg" xmlns:xlink="http://www.w3.org/1999/xlink" xml:space="preserve" xmlns:serif="http://www.serif.com/" style="fill-rule:evenodd;clip-rule:evenodd;stroke-linejoin:round;stroke-miterlimit:2;">
    <rect id="Artboard1" x="0" y="0" width="32" height="32" style="fill:none;"/>
    <g id="Artboard11" serif:id="Artboard1">
        <g transform="matrix(1.17173,0,0,1.17173,-2.40295,-8.47009)">
            <path d="M26.822,15.326C26.822,12.258 24.332,9.768 21.264,9.768L10.148,9.768C7.08,9.768 4.59,12.258 4.59,15.326L4.59,26.442C4.59,29.509 7.08,32 10.148,32L21.264,32C24.332,32 26.822,29.509 26.822,26.442L26.822,15.326Z" style="fill:rgb(62,80,55);"/>
        </g>
        <g transform="matrix(0.64606,0,0,0.64606,-1.95117,7.28554)">
            <path d="M24.322,13.892L25.808,13.882C26.171,13.882 26.382,13.879 26.44,13.872L26.44,21.082C24.166,21.464 22.353,21.655 20.999,21.655C19.645,21.655 18.376,21.462 17.19,21.077C16.005,20.691 14.978,20.142 14.11,19.43C13.242,18.717 12.562,17.854 12.07,16.841C11.578,15.827 11.332,14.692 11.332,13.435C11.332,10.967 12.315,8.998 14.28,7.528C16.246,6.058 18.768,5.322 21.844,5.322C23.354,5.322 24.549,5.484 25.43,5.808C25.585,5.866 25.669,5.896 25.682,5.896L25.682,10.588C24.73,10.297 23.856,10.151 23.059,10.151C21.608,10.151 20.471,10.537 19.648,11.307C18.826,12.078 18.418,12.966 18.424,13.97C18.424,14.669 18.617,15.242 19.002,15.689C19.388,16.136 19.917,16.36 20.591,16.36C20.954,16.36 21.232,16.314 21.427,16.224C21.439,15.984 21.446,15.676 21.446,15.301L21.446,13.892L24.322,13.892Z" style="fill:rgb(231,220,208);fill-rule:nonzero;"/>
            <path d="M34.475,10.452L29.122,10.452L29.122,5.76L44.24,5.76L44.24,6.945L38.255,16.836L44.24,16.836L44.24,21.276L28.529,21.276L28.529,20.382L34.475,10.452Z" style="fill:rgb(231,220,208);fill-rule:nonzero;"/>
        </g>
    </g>
</svg>
